<mxfile host="65bd71144e">
    <diagram id="-qIjRrIg6Dr7SmR-QBK6" name="Page-1">
        <mxGraphModel dx="924" dy="599" grid="1" gridSize="10" guides="1" tooltips="1" connect="1" arrows="1" fold="1" page="1" pageScale="1" pageWidth="850" pageHeight="1100" math="0" shadow="0">
            <root>
                <mxCell id="0"/>
                <mxCell id="1" parent="0"/>
                <mxCell id="2" value="&lt;b&gt;REVIEW&lt;/b&gt;" style="rounded=0;whiteSpace=wrap;html=1;strokeColor=#0077FF;shadow=1;" vertex="1" parent="1">
                    <mxGeometry x="80" y="240" width="120" height="330" as="geometry"/>
                </mxCell>
                <mxCell id="3" value="&lt;b&gt;EVENTS&lt;/b&gt;" style="rounded=0;whiteSpace=wrap;html=1;strokeColor=#0077FF;shadow=1;" vertex="1" parent="1">
                    <mxGeometry x="320" y="295" width="160" height="80" as="geometry"/>
                </mxCell>
                <mxCell id="7" value="&lt;b&gt;TRIGGER&lt;/b&gt;" style="rounded=0;whiteSpace=wrap;html=1;strokeColor=#0077FF;shadow=1;" vertex="1" parent="1">
                    <mxGeometry x="320" y="435" width="160" height="80" as="geometry"/>
                </mxCell>
                <mxCell id="8" value="&lt;b&gt;PIPEFLOW&lt;/b&gt;" style="rounded=0;whiteSpace=wrap;html=1;strokeColor=#0077FF;shadow=1;" vertex="1" parent="1">
                    <mxGeometry x="600" y="240" width="120" height="330" as="geometry"/>
                </mxCell>
                <mxCell id="9" value="" style="endArrow=classic;html=1;entryX=0;entryY=0.5;entryDx=0;entryDy=0;exitX=1.004;exitY=0.288;exitDx=0;exitDy=0;exitPerimeter=0;" edge="1" parent="1" source="2" target="3">
                    <mxGeometry width="50" height="50" relative="1" as="geometry">
                        <mxPoint x="280" y="530" as="sourcePoint"/>
                        <mxPoint x="330" y="480" as="targetPoint"/>
                    </mxGeometry>
                </mxCell>
                <mxCell id="10" value="" style="endArrow=classic;html=1;entryX=0;entryY=0.5;entryDx=0;entryDy=0;exitX=1.004;exitY=0.288;exitDx=0;exitDy=0;exitPerimeter=0;" edge="1" parent="1">
                    <mxGeometry width="50" height="50" relative="1" as="geometry">
                        <mxPoint x="200.00000000000003" y="474.78999999999996" as="sourcePoint"/>
                        <mxPoint x="319.52" y="474.75" as="targetPoint"/>
                    </mxGeometry>
                </mxCell>
                <mxCell id="11" value="" style="endArrow=classic;html=1;entryX=0;entryY=0.5;entryDx=0;entryDy=0;exitX=1.004;exitY=0.288;exitDx=0;exitDy=0;exitPerimeter=0;startArrow=classic;startFill=1;" edge="1" parent="1">
                    <mxGeometry width="50" height="50" relative="1" as="geometry">
                        <mxPoint x="480" y="474.66999999999996" as="sourcePoint"/>
                        <mxPoint x="599.52" y="474.63" as="targetPoint"/>
                    </mxGeometry>
                </mxCell>
                <mxCell id="12" value="stream events" style="text;html=1;strokeColor=none;fillColor=none;align=center;verticalAlign=middle;whiteSpace=wrap;rounded=0;shadow=1;" vertex="1" parent="1">
                    <mxGeometry x="210" y="310" width="100" height="20" as="geometry"/>
                </mxCell>
                <mxCell id="13" value="SSH" style="text;html=1;strokeColor=none;fillColor=none;align=center;verticalAlign=middle;whiteSpace=wrap;rounded=0;shadow=1;" vertex="1" parent="1">
                    <mxGeometry x="210" y="340" width="100" height="20" as="geometry"/>
                </mxCell>
                <mxCell id="14" value="SSH" style="text;html=1;strokeColor=none;fillColor=none;align=center;verticalAlign=middle;whiteSpace=wrap;rounded=0;shadow=1;" vertex="1" parent="1">
                    <mxGeometry x="210" y="480" width="100" height="20" as="geometry"/>
                </mxCell>
                <mxCell id="15" value="stream events" style="text;html=1;strokeColor=none;fillColor=none;align=center;verticalAlign=middle;whiteSpace=wrap;rounded=0;shadow=1;" vertex="1" parent="1">
                    <mxGeometry x="210" y="450" width="100" height="20" as="geometry"/>
                </mxCell>
                <mxCell id="16" value="playback" style="text;html=1;strokeColor=none;fillColor=none;align=center;verticalAlign=middle;whiteSpace=wrap;rounded=0;shadow=1;" vertex="1" parent="1">
                    <mxGeometry x="340" y="395" width="50" height="20" as="geometry"/>
                </mxCell>
                <mxCell id="17" value="REST" style="text;html=1;strokeColor=none;fillColor=none;align=center;verticalAlign=middle;whiteSpace=wrap;rounded=0;shadow=1;" vertex="1" parent="1">
                    <mxGeometry x="405" y="395" width="40" height="20" as="geometry"/>
                </mxCell>
                <mxCell id="18" value="events" style="text;html=1;strokeColor=none;fillColor=none;align=center;verticalAlign=middle;whiteSpace=wrap;rounded=0;shadow=1;" vertex="1" parent="1">
                    <mxGeometry x="510" y="450" width="60" height="20" as="geometry"/>
                </mxCell>
                <mxCell id="19" value="" style="endArrow=classic;html=1;entryX=0.5;entryY=0;entryDx=0;entryDy=0;exitX=0.5;exitY=1;exitDx=0;exitDy=0;" edge="1" parent="1" source="3" target="7">
                    <mxGeometry width="50" height="50" relative="1" as="geometry">
                        <mxPoint x="340" y="430" as="sourcePoint"/>
                        <mxPoint x="390" y="380" as="targetPoint"/>
                    </mxGeometry>
                </mxCell>
            </root>
        </mxGraphModel>
    </diagram>
</mxfile>